:FULLY-SPECIFIED
:FORCE-ALL-JOINTS-BE-3DOF
:DEGREES
57
root 0.552849 17.3478 -6.111 2.54175 -4.24695 -1.95346
lfemur -22.7009 7.84571 -15.3906
ltibia 86.4063 -0 0
lfoot 4.31632 -3.15522 -0.253037
ltoes -11.5557 0 0
rfemur -14.5634 -2.16441 26.217
rtibia 65.2721 -0 0
rfoot -1.60166 -6.46295 -0.0135744
rtoes 3.81577 -0 0
lowerback 18.2765 -0.784754 0.607142
upperback 2.52653 -0.871131 0.408065
thorax -7.45693 -0.444083 0.298796
lowerneck -3.28739 1.52139 -0.241784
upperneck -13.8032 1.95128 -0.755969
head -3.5707 1.01017 -0.274788
lclavicle 3.77691e-15 4.21423e-14 0
lhumerus -39.6534 -13.0142 92.6622
lradius 105.02 -0 0
lwrist 32.3562 0 0
lhand -38.3107 11.7008 -0.0466495
lfingers 7.12502 -0 0
lthumb -11.3386 41.3674 -0.0437726
rclavicle 3.77691e-15 4.21423e-14 0
rhumerus -36.9834 10.254 -87.3165
rradius 93.3168 -0 0
rwrist -1.35866 0 0
rhand -44.6279 38.1263 -0
rfingers 7.12502 -0 0
rthumb -17.4165 8.87202 -7.04958e-07
58
root 0.553523 17.3516 -5.57167 2.43508 -3.88663 -1.74081
lfemur -22.4467 7.36469 -15.8445
ltibia 84.5874 -0 0
lfoot 3.55288 -3.05739 -0.259565
ltoes -11.7302 0 0
rfemur -14.5363 -2.54795 25.8048
rtibia 66.8675 -0 0
rfoot -0.611704 -6.46701 -0.0139259
rtoes 4.65859 -0 0
lowerback 18.2645 -0.784864 0.374579
upperback 2.54472 -0.926056 0.286156
thorax -7.42751 -0.465762 0.312429
lowerneck -3.42141 1.42385 -0.317933
upperneck -13.6107 1.84458 -0.539185
head -3.495 0.95263 -0.191617
lclavicle 3.77691e-15 4.21423e-14 0
lhumerus -39.0785 -13.1345 92.3945
lradius 105.093 -0 0
lwrist 32.238 0 0
lhand -38.225 11.5407 -0.0478461
lfingers 7.12502 -0 0
lthumb -11.256 41.2116 -0.0448953
rclavicle 3.77691e-15 4.21423e-14 0
rhumerus -37.4106 10.0908 -87.2449
rradius 92.7751 -0 0
rwrist -1.26043 0 0
rhand -44.6279 38.1263 -0
rfingers 7.12502 -0 0
rthumb -17.4168 8.87261 -7.23034e-07
59
root 0.554197 17.3554 -5.03234 2.32979 -3.52592 -1.52893
lfemur -22.1889 6.88569 -16.2999
ltibia 82.7685 -0 0
lfoot 2.78943 -2.95949 -0.264788
ltoes -11.9047 0 0
rfemur -14.5064 -2.9313 25.3924
rtibia 68.463 -0 0
rfoot 0.378252 -6.47108 -0.0142073
rtoes 5.5014 -0 0
lowerback 18.2525 -0.785022 0.142015
upperback 2.56302 -0.980942 0.164227
thorax -7.3981 -0.487449 0.32605
lowerneck -3.55529 1.32612 -0.393852
upperneck -13.4185 1.73715 -0.322775
head -3.41938 0.894981 -0.108524
lclavicle 3.77691e-15 4.21423e-14 0
lhumerus -38.5028 -13.2522 92.1254
lradius 105.165 -0 0
lwrist 32.1199 0 0
lhand -38.1394 11.3806 -0.0488033
lfingers 7.12502 -0 0
lthumb -11.1734 41.0559 -0.0457935
rclavicle 3.77691e-15 4.21423e-14 0
rhumerus -37.8377 9.92819 -87.1722
rradius 92.2333 -0 0
rwrist -1.1622 0 0
rhand -44.6279 38.1263 -0
rfingers 7.12502 -0 0
rthumb -17.4172 8.8732 -7.37494e-07
60
root 0.554871 17.3592 -4.49302 2.22588 -3.16483 -1.31778
lfemur -21.9276 6.40874 -16.7572
ltibia 80.9495 -0 0
lfoot 2.02597 -2.86152 -0.268706
ltoes -12.0793 0 0
rfemur -14.4738 -3.31441 24.9795
rtibia 70.0585 -0 0
rfoot 1.36821 -6.47515 -0.0144184
rtoes 6.34422 -0 0
lowerback 18.2406 -0.785229 -0.0905484
upperback 2.58145 -1.03579 0.0422791
thorax -7.36869 -0.509143 0.33966
lowerneck -3.68904 1.22823 -0.469539
upperneck -13.2269 1.629 -0.106737
head -3.34385 0.837222 -0.0255076
lclavicle 3.77691e-15 4.21423e-14 0
lhumerus -37.9262 -13.3672 91.855
lradius 105.238 -0 0
lwrist 32.0018 0 0
lhand -38.0538 11.2204 -0.0495213
lfingers 7.12502 -0 0
lthumb -11.0908 40.9001 -0.0464672
rclavicle 3.77691e-15 4.21423e-14 0
rhumerus -38.2649 9.76609 -87.0982
rradius 91.6916 -0 0
rwrist -1.06398 0 0
rhand -44.6279 38.1263 -0
rfingers 7.12502 -0 0
rthumb -17.4175 8.87379 -7.4834e-07
